<svg width="305" height="46" viewBox="0 0 305 46" fill="none" xmlns="http://www.w3.org/2000/svg">
<path d="M7.992 1.736V28.76H20.952L20.136 35H0.12V1.736H7.992ZM45.3863 35H38.8103L38.4743 31.784C36.6183 34.472 34.0423 35.816 30.7463 35.816C28.4103 35.816 26.6343 35.112 25.4183 33.704C24.2343 32.296 23.6423 30.328 23.6423 27.8V9.512H31.2263V26.84C31.2263 28.088 31.4183 28.968 31.8023 29.48C32.2183 29.96 32.8423 30.2 33.6743 30.2C35.2743 30.2 36.6503 29.208 37.8023 27.224V9.512H45.3863V35ZM62.391 8.696C64.151 8.696 65.735 8.952 67.143 9.464C68.551 9.976 69.879 10.76 71.127 11.816L67.863 16.328C66.263 15.112 64.647 14.504 63.015 14.504C61.319 14.504 60.039 15.128 59.175 16.376C58.311 17.624 57.879 19.64 57.879 22.424C57.879 25.112 58.311 27.016 59.175 28.136C60.039 29.256 61.287 29.816 62.919 29.816C63.783 29.816 64.567 29.688 65.271 29.432C65.975 29.144 66.823 28.696 67.815 28.088L71.127 32.792C68.599 34.808 65.735 35.816 62.535 35.816C59.943 35.816 57.703 35.272 55.815 34.184C53.927 33.064 52.471 31.512 51.447 29.528C50.423 27.512 49.911 25.16 49.911 22.472C49.911 19.784 50.423 17.4 51.447 15.32C52.471 13.24 53.927 11.624 55.815 10.472C57.703 9.288 59.895 8.696 62.391 8.696ZM94.107 27.608C94.107 28.568 94.235 29.272 94.491 29.72C94.779 30.168 95.227 30.504 95.835 30.728L94.251 35.672C92.683 35.544 91.403 35.208 90.411 34.664C89.419 34.088 88.651 33.192 88.107 31.976C86.443 34.536 83.883 35.816 80.427 35.816C77.899 35.816 75.883 35.08 74.379 33.608C72.875 32.136 72.123 30.216 72.123 27.848C72.123 25.064 73.147 22.936 75.195 21.464C77.243 19.992 80.203 19.256 84.075 19.256H86.667V18.152C86.667 16.648 86.347 15.624 85.707 15.08C85.067 14.504 83.947 14.216 82.347 14.216C81.515 14.216 80.507 14.344 79.323 14.6C78.139 14.824 76.923 15.144 75.675 15.56L73.947 10.568C75.547 9.96 77.179 9.496 78.843 9.176C80.539 8.856 82.107 8.696 83.547 8.696C87.195 8.696 89.867 9.448 91.563 10.952C93.259 12.456 94.107 14.712 94.107 17.72V27.608ZM82.635 30.392C84.363 30.392 85.707 29.576 86.667 27.944V23.432H84.795C83.067 23.432 81.771 23.736 80.907 24.344C80.075 24.952 79.659 25.896 79.659 27.176C79.659 28.2 79.915 29 80.427 29.576C80.971 30.12 81.707 30.392 82.635 30.392ZM108.655 8.696C110.479 8.696 112.191 8.968 113.791 9.512C115.391 10.056 116.799 10.824 118.015 11.816L115.231 16.088C113.151 14.776 111.055 14.12 108.943 14.12C107.951 14.12 107.183 14.296 106.639 14.648C106.127 14.968 105.871 15.432 105.871 16.04C105.871 16.52 105.983 16.92 106.207 17.24C106.463 17.528 106.959 17.832 107.695 18.152C108.431 18.472 109.567 18.856 111.103 19.304C113.759 20.072 115.727 21.08 117.007 22.328C118.319 23.544 118.975 25.24 118.975 27.416C118.975 29.144 118.479 30.648 117.487 31.928C116.495 33.176 115.135 34.136 113.407 34.808C111.679 35.48 109.759 35.816 107.647 35.816C105.503 35.816 103.503 35.48 101.647 34.808C99.8231 34.136 98.2711 33.208 96.9911 32.024L100.687 27.896C102.831 29.56 105.087 30.392 107.455 30.392C108.607 30.392 109.503 30.184 110.143 29.768C110.815 29.352 111.151 28.76 111.151 27.992C111.151 27.384 111.023 26.904 110.767 26.552C110.511 26.2 110.015 25.88 109.279 25.592C108.543 25.272 107.375 24.888 105.775 24.44C103.247 23.704 101.359 22.68 100.111 21.368C98.8631 20.056 98.2391 18.424 98.2391 16.472C98.2391 15 98.6551 13.688 99.4871 12.536C100.351 11.352 101.567 10.424 103.135 9.752C104.735 9.048 106.575 8.696 108.655 8.696ZM148.001 0.919998C150.081 0.919998 151.921 1.224 153.521 1.832C155.153 2.44 156.689 3.352 158.129 4.568L154.385 9.032C153.393 8.264 152.417 7.688 151.457 7.304C150.497 6.92 149.473 6.728 148.385 6.728C146.145 6.728 144.369 7.672 143.057 9.56C141.777 11.448 141.137 14.36 141.137 18.296C141.137 22.168 141.777 25.048 143.057 26.936C144.369 28.792 146.177 29.72 148.481 29.72C149.697 29.72 150.801 29.496 151.793 29.048C152.785 28.568 153.857 27.896 155.009 27.032L158.513 31.544C157.265 32.792 155.745 33.816 153.953 34.616C152.193 35.416 150.241 35.816 148.097 35.816C145.025 35.816 142.353 35.144 140.081 33.8C137.809 32.456 136.033 30.472 134.753 27.848C133.505 25.192 132.881 22.008 132.881 18.296C132.881 14.68 133.521 11.56 134.801 8.936C136.113 6.312 137.905 4.328 140.177 2.984C142.481 1.608 145.089 0.919998 148.001 0.919998ZM181.67 27.608C181.67 28.568 181.798 29.272 182.054 29.72C182.342 30.168 182.79 30.504 183.398 30.728L181.814 35.672C180.246 35.544 178.966 35.208 177.974 34.664C176.982 34.088 176.214 33.192 175.67 31.976C174.006 34.536 171.446 35.816 167.99 35.816C165.462 35.816 163.446 35.08 161.942 33.608C160.438 32.136 159.686 30.216 159.686 27.848C159.686 25.064 160.71 22.936 162.758 21.464C164.806 19.992 167.766 19.256 171.638 19.256H174.23V18.152C174.23 16.648 173.91 15.624 173.27 15.08C172.63 14.504 171.51 14.216 169.91 14.216C169.078 14.216 168.07 14.344 166.886 14.6C165.702 14.824 164.486 15.144 163.238 15.56L161.51 10.568C163.11 9.96 164.742 9.496 166.406 9.176C168.102 8.856 169.67 8.696 171.109 8.696C174.758 8.696 177.43 9.448 179.126 10.952C180.822 12.456 181.67 14.712 181.67 17.72V27.608ZM170.198 30.392C171.926 30.392 173.27 29.576 174.23 27.944V23.432H172.358C170.63 23.432 169.334 23.736 168.47 24.344C167.638 24.952 167.222 25.896 167.222 27.176C167.222 28.2 167.478 29 167.99 29.576C168.534 30.12 169.27 30.392 170.198 30.392ZM215.886 8.696C217.902 8.696 219.518 9.384 220.734 10.76C221.95 12.104 222.558 13.976 222.558 16.376V35H214.974V17.672C214.974 15.4 214.254 14.264 212.814 14.264C212.014 14.264 211.31 14.536 210.702 15.08C210.094 15.624 209.502 16.456 208.926 17.576V35H201.342V17.672C201.342 15.4 200.622 14.264 199.182 14.264C198.414 14.264 197.71 14.552 197.07 15.128C196.462 15.672 195.87 16.488 195.294 17.576V35H187.71V9.512H194.334L194.862 12.488C195.854 11.208 196.942 10.264 198.126 9.656C199.342 9.016 200.718 8.696 202.254 8.696C203.694 8.696 204.926 9.048 205.95 9.752C207.006 10.456 207.774 11.448 208.254 12.728C209.278 11.352 210.398 10.344 211.614 9.704C212.862 9.032 214.286 8.696 215.886 8.696ZM242.657 8.696C245.857 8.696 248.241 9.88 249.809 12.248C251.377 14.616 252.161 17.928 252.161 22.184C252.161 24.808 251.745 27.16 250.913 29.24C250.113 31.288 248.945 32.904 247.409 34.088C245.873 35.24 244.081 35.816 242.033 35.816C239.473 35.816 237.409 34.936 235.841 33.176V44.84L228.257 45.656V9.512H234.929L235.313 12.344C236.305 11.096 237.441 10.184 238.721 9.608C240.001 9 241.313 8.696 242.657 8.696ZM239.729 30.248C242.769 30.248 244.289 27.592 244.289 22.28C244.289 19.272 243.953 17.192 243.281 16.04C242.609 14.856 241.601 14.264 240.257 14.264C239.393 14.264 238.577 14.52 237.809 15.032C237.073 15.544 236.417 16.28 235.841 17.24V27.992C236.865 29.496 238.161 30.248 239.729 30.248ZM267.938 8.696C271.842 8.696 274.898 9.896 277.106 12.296C279.314 14.664 280.418 17.992 280.418 22.28C280.418 25 279.906 27.384 278.882 29.432C277.89 31.448 276.45 33.016 274.562 34.136C272.706 35.256 270.498 35.816 267.938 35.816C264.066 35.816 261.01 34.632 258.77 32.264C256.562 29.864 255.458 26.52 255.458 22.232C255.458 19.512 255.954 17.144 256.946 15.128C257.97 13.08 259.41 11.496 261.266 10.376C263.154 9.256 265.378 8.696 267.938 8.696ZM267.938 14.264C266.402 14.264 265.25 14.92 264.482 16.232C263.714 17.512 263.33 19.512 263.33 22.232C263.33 25.016 263.698 27.048 264.434 28.328C265.202 29.608 266.37 30.248 267.938 30.248C269.474 30.248 270.626 29.608 271.394 28.328C272.162 27.016 272.546 25 272.546 22.28C272.546 19.496 272.162 17.464 271.394 16.184C270.658 14.904 269.506 14.264 267.938 14.264ZM293.905 8.696C295.729 8.696 297.441 8.968 299.041 9.512C300.641 10.056 302.049 10.824 303.265 11.816L300.481 16.088C298.401 14.776 296.305 14.12 294.193 14.12C293.201 14.12 292.433 14.296 291.889 14.648C291.377 14.968 291.121 15.432 291.121 16.04C291.121 16.52 291.233 16.92 291.457 17.24C291.713 17.528 292.209 17.832 292.945 18.152C293.681 18.472 294.817 18.856 296.353 19.304C299.009 20.072 300.977 21.08 302.257 22.328C303.569 23.544 304.225 25.24 304.225 27.416C304.225 29.144 303.729 30.648 302.737 31.928C301.745 33.176 300.385 34.136 298.657 34.808C296.929 35.48 295.009 35.816 292.897 35.816C290.753 35.816 288.753 35.48 286.897 34.808C285.073 34.136 283.521 33.208 282.241 32.024L285.937 27.896C288.081 29.56 290.337 30.392 292.705 30.392C293.857 30.392 294.753 30.184 295.393 29.768C296.065 29.352 296.401 28.76 296.401 27.992C296.401 27.384 296.273 26.904 296.017 26.552C295.761 26.2 295.265 25.88 294.529 25.592C293.793 25.272 292.625 24.888 291.025 24.44C288.497 23.704 286.609 22.68 285.361 21.368C284.113 20.056 283.489 18.424 283.489 16.472C283.489 15 283.905 13.688 284.737 12.536C285.601 11.352 286.817 10.424 288.385 9.752C289.985 9.048 291.825 8.696 293.905 8.696Z" fill="#141414"/>
</svg>
